<svg width="64" height="64" viewBox="0 0 64 64" fill="none" xmlns="http://www.w3.org/2000/svg">
<path d="M32 64C49.6731 64 64 49.6731 64 32C64 14.3269 49.6731 0 32 0C14.3269 0 0 14.3269 0 32C0 49.6731 14.3269 64 32 64Z" fill="url(#paint0_linear)"/>
<path fill-rule="evenodd" clip-rule="evenodd" d="M14.4849 31.6624C23.8136 27.598 30.0341 24.9186 33.1466 23.624C42.0334 19.9277 43.8799 19.2856 45.0835 19.2644C45.3482 19.2597 45.9401 19.3253 46.3235 19.6364C46.6473 19.8991 46.7363 20.254 46.779 20.503C46.8216 20.7521 46.8747 21.3194 46.8325 21.7628C46.3509 26.8227 44.2671 39.1019 43.207 44.7691C42.7584 47.1671 41.8752 47.9712 41.0201 48.0499C39.1618 48.2209 37.7507 46.8218 35.9509 45.6419C33.1344 43.7957 31.5433 42.6465 28.8095 40.8449C25.6501 38.7629 27.6982 37.6186 29.4988 35.7485C29.97 35.2591 38.1577 27.8118 38.3162 27.1362C38.336 27.0517 38.3544 26.7367 38.1673 26.5704C37.9802 26.4041 37.704 26.461 37.5047 26.5062C37.2222 26.5703 32.723 29.5442 24.0069 35.4277C22.7298 36.3047 21.5731 36.732 20.5367 36.7096C19.3941 36.6849 17.1963 36.0636 15.5624 35.5325C13.5584 34.881 11.9656 34.5366 12.1043 33.4303C12.1766 32.8541 12.9701 32.2648 14.4849 31.6624Z" fill="white"/>
<defs>
<linearGradient id="paint0_linear" x1="32" y1="0" x2="32" y2="63.5253" gradientUnits="userSpaceOnUse">
<stop stop-color="#2AABEE"/>
<stop offset="1" stop-color="#229ED9"/>
</linearGradient>
</defs>
</svg>
