<svg width="64" height="64" viewBox="0 0 64 64" fill="none" xmlns="http://www.w3.org/2000/svg">
<rect width="64" height="64" rx="32" fill="#1DA1F2"/>
<path d="M26.2647 49C40.9818 49 49.0314 37.0723 49.0314 26.7287C49.0314 26.39 49.0314 26.0527 49.008 25.717C50.5739 24.6089 51.9257 23.2369 53 21.6653C51.5398 22.2986 49.9906 22.7137 48.4042 22.8968C50.0747 21.9187 51.3249 20.3801 51.922 18.5674C50.3514 19.4792 48.633 20.1218 46.8411 20.4673C45.6347 19.2124 44.0391 18.3815 42.3013 18.103C40.5635 17.8246 38.7803 18.1142 37.2277 18.927C35.6751 19.7399 34.4396 21.0307 33.7125 22.5996C32.9853 24.1685 32.807 25.9282 33.2052 27.6062C30.024 27.4501 26.9119 26.6414 24.0709 25.2324C21.2299 23.8235 18.7235 21.846 16.7144 19.4281C15.6912 21.1512 15.3778 23.1911 15.838 25.1324C16.2983 27.0737 17.4976 28.7703 19.1917 29.877C17.9183 29.8405 16.6726 29.5044 15.56 28.8973V28.9965C15.5605 30.8036 16.2 32.555 17.37 33.9535C18.5401 35.3521 20.1686 36.3116 21.9794 36.6695C20.8014 36.9838 19.5654 37.0297 18.3664 36.8038C18.8779 38.3589 19.8734 39.7189 21.2138 40.6935C22.5541 41.6681 24.1722 42.2087 25.842 42.2396C24.183 43.5152 22.2831 44.4584 20.2512 45.0151C18.2192 45.5718 16.095 45.7311 14 45.484C17.6592 47.781 21.9169 48.9995 26.2647 48.9939" fill="white"/>
</svg>
